<svg enable-background="new 0 0 32 32" height="32" viewBox="0 0 32 32" width="32" xmlns="http://www.w3.org/2000/svg"><g fill="#fff"><path d="m21.172 13.98 5.691-9.664c-2.855-2.658-6.652-4.316-10.863-4.316-.998 0-1.965.119-2.912.293z"/><path d="m19.951 20h11.482c.333-1.285.567-2.609.567-4 0-3.873-1.43-7.377-3.723-10.145z"/><path d="m16.5 10-5.408-9.152c-4.5 1.459-8.139 4.798-9.904 9.152z"/><path d="m15.633 22 5.391 9.117c4.449-1.484 8.039-4.801 9.789-9.117z"/><path d="m12.105 12h-11.539c-.334 1.285-.566 2.609-.566 4 0 3.891 1.445 7.41 3.756 10.188z"/><path d="m10.918 17.961-5.744 9.758c2.853 2.633 6.635 4.281 10.826 4.281 1.041 0 2.055-.117 3.041-.305z"/></g></svg>